<svg id="Capa_1" data-name="Capa 1" xmlns="http://www.w3.org/2000/svg" viewBox="0 0 885.42 780">
<path d="M869.72,548.3c-2.55-1.73-5.16-3.72-8-5.36-12-7-24.11-13.93-36.17-20.88-2.28-1.32-4.5-2.73-6.81-4a7.64,7.64,0,0,1-4.21-7.37c0.07-6.78,0-13.55,0-20.33,0-8.28,0-16.56.07-24.85,0-1.73.66-3.45,1.16-5.93,2.78,1.25,4.83,2,6.72,3,45.24,24.76,140.26,80.35,149.07,87.22-1.51,3.37-5,4.18-7.8,5.73Q883.05,600.86,802.24,646,671.69,719,541.12,791.93c-14.18,7.92-10.67,7.84-24.32.25q-56.72-31.55-113.31-63.33c-12-6.74-11.11-5.08-11.11-19.26q0-97.13,0-194.25c0-14.86-.54-12.41,11.19-19.23q68.81-40,137.73-79.77c3.49-2,6.78-4.56,11.47-5.4,1.4,4.49.82,8.59,0.83,12.59q0.07,81.32.07,162.63c0,4-.75,8.18,1.08,12.1,1.43,0,2.71.39,3.55-.06,18.91-10.07,37.51-20.66,56.43-31.73,0.89-27.7.3-55.13,0.4-82.55s0-54.92,0-82.51c-2.88-2-5.22-3.84-7.78-5.32Q572.22,375.7,537,355.42c-1.3-.75-2.63-1.46-3.94-2.21a7.92,7.92,0,0,0-8.55-.08c-2.26,1.35-4.57,2.63-6.85,3.94Q357.34,449.64,197,542.23c-3.18,1.84-6.23,3.91-10.18,6.41,2.33,2.07,3.72,3.8,5.51,4.82,12.42,7.08,24.93,14,37.39,21,3.92,2.2,7.79,4.49,11.62,6.71,2.12,6.23,1.16,12.28,1.29,18.22,0.15,6.4.17,12.8,0,19.2-0.16,5.87.93,11.89-1.22,17.87-1.54-.2-2.77,0-3.63-0.51q-75.92-42.22-151.65-84.47c0.38-4.5,3.81-5,6.17-6.42q44.41-25.81,88.91-51.45t89-51.37c3.55-2.05,7-4.24,10.55-6.38,1.18-11.74.44-23,.57-34.27s0-22.59,0-33.88V300.59C289,294.45,506.54,168.27,528,157.36c0.33,0,.7,0,1.07,0a3,3,0,0,1,1.09.21c2,1,4,2,6,3.17q117.79,68,235.55,136.11a28.42,28.42,0,0,1,3,2.43c1.69,4.35,1,9.28,1,14.1q0.07,80.19,0,160.37,0,57,0,114.07c0,4.37-.85,9,2,13.54a56.51,56.51,0,0,0,6.37-2.61Q826.44,575,868.62,551C869.11,550.75,869.18,549.72,869.72,548.3ZM443.13,531.1c-0.25,2.91-.5,4.4-0.5,5.89q0,75.07,0,150.14a50.33,50.33,0,0,0,.95,6.8c28.32,15.94,56.45,31.77,84.61,47.27,3-1.42,5.46-2.4,7.74-3.65,6.93-3.78,13.81-7.66,20.71-11.52q80.26-44.89,160.51-89.8c8.88-5,8.84-5,9-14.78,0-1.13,0-2.26,0-3.39q0-138.29,0-276.59c0-4.44.56-9-.78-12.87-9.72-7.15-188.65-110.21-196.83-113.46-12.13,5.49-189.52,108.26-196.78,114.19,0,23.06,0,46.73,0,70.4a23.65,23.65,0,0,0,1,4.57c5.5-.28,9.31-3.55,13.42-5.92q86-49.57,172-99.27c11.51-6.65,9.76-6.61,21.29,0q57.68,33.24,115.31,66.58c3.22,1.86,6.34,3.92,9.48,5.88V596.24q-77.64,43.68-155.31,87.32c-0.86.48-2.09,0.32-3.59,0.52-1.92-4.45-1.18-9-1.18-13.34q-0.09-78.46,0-156.92c0-3.76,0-7.53-.2-11.28-0.08-1.37-.79-2.7-1.7-5.6C481.89,508.28,462.58,519.52,443.13,531.1Z" transform="translate(-86.16 -157.35)"/>
<path d="M726,734c9.39-7.13,39.59-23.87,47.88-26.69,2.66,1.81,1.86,4.66,1.87,7.12,0.07,24.09-.11,48.18.15,72.26,0.07,6.41-2.15,10.23-7.81,13.44-31.74,18-63.28,36.37-94.88,54.62q-66.94,38.66-133.89,77.33c-3.24,1.87-6.56,3.61-9.28,5.11a14.49,14.49,0,0,1-1.82.13,2.73,2.73,0,0,1-1.08-.3q-118.8-68.46-237.58-137c-2-1.12-3.86-2.32-5.74-3.57a9.52,9.52,0,0,1-1.53-1.63c-1.17-8.94-1.36-244.3-.2-256,6.7-5.61,37.7-23.68,48.2-28a28.65,28.65,0,0,1,1.24,5.1c0.2,3.38.08,6.77,0.08,10.16q0,112.91,0,225.83c0,4.5,0,9,0,13.57a70.1,70.1,0,0,0,6.57,4.92q92.33,53.38,184.73,106.65c1.62,0.93,3.34,1.7,5.5,2.79,2.51-1.19,5.28-2.26,7.83-3.73Q627.16,823.75,718,771.23c2.57-1.49,4.95-3.31,8-5.36V734Z" transform="translate(-86.16 -157.35)"/>
</svg>